<?xml version="1.0" encoding="UTF-8"?>
<svg id="logosandtypes_com" data-name="logosandtypes com" xmlns="http://www.w3.org/2000/svg" viewBox="0 0 150 150">
  <defs>
    <style>
      .cls-1 {
        fill: none;
      }
    </style>
  </defs>
  <path class="cls-1" d="M0,0H150V150H0V0Z"/>
  <path id="path14" d="M39.21,117.31v-5.25H23.04v5.25h16.17"/>
  <path id="path16" d="M39.2,110.21v-5.25H16.7v5.25h22.5"/>
  <path id="path18" d="M39.2,103.13v-5.25H16.7v5.25h22.5"/>
  <path id="path20" d="M22.88,41.98v-5.25h1.67c-1.26-.78-1.76-1.93-1.83-3.51h5.57v.62c0,1.86,1.07,2.89,3.05,2.89h7.71v5.25H22.88"/>
  <path id="path22" d="M19.01,117.73c-1.7,0-3.08-1.36-3.08-3.04s1.38-3.05,3.08-3.05,3.08,1.36,3.08,3.05-1.38,3.04-3.08,3.04"/>
  <path id="path24" d="M22.9,43.85v5.25h1.2c-.82,.74-1.49,2.45-1.49,3.76,0,4.58,3.53,7.67,8.5,7.67s8.18-3.48,8.18-7.73c0-1.31-.44-2.74-1.16-3.7h.91v-5.25h-7.08c-.29,0-.57,0-.85,0-.28,0-.56,0-.85,0h-7.37Zm11.07,8.71c0,1.68-1.38,3.04-3.08,3.04s-3.08-1.36-3.08-3.04,1.38-3.04,3.08-3.04,3.08,1.36,3.08,3.04"/>
  <path id="path26" d="M16.55,20.82h7.14c-.72,1.03-1.04,2.21-1.04,3.64,0,4.38,3.43,7.8,8.37,7.8,4.66,0,8.24-3.29,8.24-7.3,0-1.65-.53-2.98-1.7-4.23h1.48v-5.16H16.55v5.25Zm17.53,3.09c0,1.68-1.38,3.04-3.08,3.04s-3.08-1.36-3.08-3.04,1.38-3.05,3.08-3.05,3.08,1.36,3.08,3.05"/>
  <path id="path28" d="M22.81,87.11c0,1.43,.32,2.61,1.04,3.64h-7.14v5.25h22.5v-5.16h-1.48c1.16-1.24,1.7-2.58,1.7-4.23,0-4.01-3.59-7.3-8.24-7.3-4.94,0-8.37,3.42-8.37,7.8m11.46,.56c0,1.68-1.38,3.05-3.08,3.05s-3.08-1.36-3.08-3.05,1.38-3.04,3.08-3.04,3.08,1.36,3.08,3.04"/>
  <path id="path30" d="M22.81,126.45c0,1.43,.32,2.61,1.04,3.64h-7.14v5.25h22.5v-5.16h-1.48c1.16-1.24,1.7-2.58,1.7-4.23,0-4.01-3.59-7.3-8.24-7.3-4.94,0-8.37,3.42-8.37,7.8m11.46,.56c0,1.68-1.38,3.05-3.08,3.05s-3.08-1.36-3.08-3.05,1.38-3.04,3.08-3.04,3.08,1.36,3.08,3.04"/>
  <path id="path30-2" data-name="path30" d="M95.29,48.09c-7.77,0-14.2,1.68-19.77,5.53V15.57h-28.55v119.86h28.05v-7.88c6.76,6.2,14.02,9.05,22.98,9.05,21.79,0,39.7-19.11,39.7-43.92,0-26.32-18.58-44.59-42.4-44.59m-3.04,61.08c-9.15,0-16.56-7.36-16.56-16.43s7.41-16.42,16.56-16.42,16.55,7.36,16.55,16.42-7.41,16.43-16.55,16.43"/>
  <path id="path32" d="M22.52,69.86c0,4.54,3.78,8.14,8.37,8.14s8.37-3.57,8.37-8.14-3.81-8.14-8.37-8.14-8.37,3.6-8.37,8.14m11.36,0c0,1.68-1.38,3.04-3.08,3.04s-3.08-1.36-3.08-3.04,1.38-3.04,3.08-3.04,3.08,1.36,3.08,3.04"/>
</svg>