<svg version="1.1" xmlns="http://www.w3.org/2000/svg" style="display: block;" viewBox="0 0 2048 1031" width="1303" height="656" preserveAspectRatio="none">
<path transform="translate(0,0)" fill="rgb(0,0,0)" d="M 0 0 L 2048 0 L 2048 1031 L 0 1031 L 0 0 z"/>
<path transform="translate(0,0)" fill="rgb(254,254,254)" d="M 870.983 214.995 L 1006.05 214.959 C 1005.29 279.582 1006.02 345.815 1005.96 410.548 C 1033.85 391.69 1066.67 381.456 1100.34 381.12 C 1152.83 380.179 1203.48 400.429 1240.86 437.294 C 1325.2 518.908 1326.45 679.897 1247.34 766.295 C 1244.89 768.968 1242.32 771.597 1239.79 774.196 C 1206.28 805.213 1169.96 825.536 1123.56 828.374 C 1072.4 831.504 1039.8 813.762 1002.87 781.354 L 1002.81 822.912 L 870.905 822.692 L 870.983 214.995 z"/>
<path transform="translate(0,0)" fill="rgb(0,0,0)" d="M 1082.32 517.369 C 1083.52 517.279 1084.73 517.212 1085.93 517.169 C 1134.58 515.487 1170.38 553.032 1171.48 600.846 C 1172.16 625.483 1162.91 649.359 1145.81 667.105 C 1128.74 684.775 1109.5 690.449 1085.68 690.92 C 1039.27 686.477 1008.9 655.677 1005.36 608.915 C 1007.32 605.478 1007.22 609.228 1011.55 606.492 L 1011.72 603.484 L 1010.72 602.578 C 1008.55 603.577 1008.11 603.998 1005.85 603.727 C 1005.55 602.957 1005.21 601.854 1005.23 601.041 C 1006.43 555.748 1036.92 522.051 1082.32 517.369 z"/>
<path transform="translate(0,0)" fill="rgb(254,254,254)" d="M 290.793 330.554 C 293.505 330.428 296.218 330.323 298.932 330.24 C 351.03 328.61 405.733 330.066 457.764 332.339 C 493.445 333.897 553.418 333.349 580.229 358.706 C 588.098 366.247 594.28 375.37 598.368 385.474 C 607.56 408.606 612.201 470.737 612.343 497.141 C 612.405 546.35 613.381 597.861 601.439 645.837 C 595.758 668.664 576.037 691.898 552.561 697.029 C 500.576 708.39 442.708 708.132 389.5 709.456 C 388.764 709.484 388.028 709.508 387.292 709.528 C 336.384 710.504 285.458 710.002 234.579 708.02 C 195.127 706.387 129.528 706.565 100.227 680.386 C 73.0583 656.113 68.0111 583.456 69.0376 548.084 C 70.6823 491.414 62.1648 406.88 99.101 359.911 C 117.048 338.037 166.923 336.046 193.178 334.381 C 225.684 332.383 258.231 331.107 290.793 330.554 z"/>
<path transform="translate(0,0)" fill="rgb(0,0,0)" d="M 284.877 436.014 C 289.006 437.973 294.098 441.171 298.113 443.523 C 342.434 469.485 387.97 493.919 432.044 520.255 C 413.992 529.905 395.254 540.956 377.49 551.253 C 347.465 566.685 315.578 587.907 284.881 603.884 L 284.877 436.014 z"/>
<path transform="translate(0,0)" fill="rgb(254,254,254)" d="M 1484.03 325.928 C 1516.56 357.551 1549.07 390.725 1581.52 422.723 C 1613.98 391.586 1646.97 357.873 1679.49 326.218 L 1776.08 422.591 C 1808.36 391.554 1840.54 356.222 1873.89 326.664 C 1884.62 336.427 1897.02 349.443 1907.44 359.871 L 1970.99 423.63 C 1938.99 456.035 1904.19 488.375 1873.09 521.368 C 1841.18 488.744 1807.76 456.573 1775.52 424.051 C 1754.2 445.993 1732.68 467.746 1710.97 489.307 C 1705.83 494.446 1682.75 516.716 1680.23 521.041 L 1681.07 522.661 C 1712.95 552.984 1744.64 586.267 1776.27 617.313 L 1678.24 715.592 C 1674.06 711.018 1669.71 706.392 1665.27 702.069 C 1637.09 674.632 1609.88 644.974 1580.87 618.461 C 1613.36 585.705 1646.18 553.273 1679.32 521.17 C 1669.96 511.06 1658.68 500.919 1648.79 490.979 L 1581.6 423.637 C 1549.43 456.693 1515.86 488.586 1483.61 521.671 C 1451.15 488.366 1417.14 457.203 1385.16 423.362 C 1393.22 413.459 1410.48 397.51 1420.35 387.825 C 1441.36 366.969 1462.58 346.336 1484.03 325.928 z"/>
<path transform="translate(0,0)" fill="rgb(254,254,254)" d="M 747.252 365.144 L 834.975 365.232 C 834.993 370.293 835.701 387.419 834.529 391.261 L 831.829 392.312 C 831.371 396.032 836.417 402.654 836.769 406.672 C 839.162 434.013 819.74 450.525 795.403 455.09 C 802.443 456.888 809.072 459.191 815.151 463.251 C 825.348 469.966 832.407 480.51 834.73 492.497 C 836.994 504.167 834.448 516.257 827.671 526.023 C 818.467 539.212 807.25 543.477 792.398 546.156 C 816.212 548.428 839.193 565.061 836.39 592.211 C 835.985 596.132 829.689 604.018 830.424 607.432 C 832.341 607.694 832.871 607.813 834.732 608.352 C 836.073 612.101 835.376 630.368 835.324 635.743 L 804.56 635.754 C 775.048 635.832 745.537 635.749 716.026 635.506 L 716.011 608.788 C 727.808 608.824 739.63 608.999 751.405 608.313 C 737.43 575.247 755.406 553.637 787.842 546.242 C 767.832 542.605 751.859 531.164 747.126 510.506 C 744.481 499.252 746.495 487.406 752.712 477.659 C 761.067 464.519 772.848 458.343 787.512 455.16 C 764.246 451.106 742.425 434.149 747.012 407.067 C 747.748 402.72 751.354 398.104 751.36 393.308 C 749.212 392.924 748.928 392.993 747.298 391.66 C 746.79 383.03 747.109 373.831 747.252 365.144 z"/>
<path transform="translate(0,0)" fill="rgb(0,0,0)" d="M 786.6 483.715 C 795.985 481.473 805.401 487.3 807.582 496.7 C 809.763 506.099 803.874 515.477 794.46 517.596 C 785.134 519.695 775.861 513.873 773.701 504.56 C 771.54 495.247 777.302 485.937 786.6 483.715 z"/>
<path transform="translate(0,0)" fill="rgb(0,0,0)" d="M 785.393 393.735 C 794.526 390.592 804.47 395.494 807.538 404.653 C 810.606 413.811 805.622 423.715 796.438 426.707 C 787.361 429.665 777.597 424.75 774.565 415.698 C 771.533 406.646 776.366 396.842 785.393 393.735 z"/>
<path transform="translate(0,0)" fill="rgb(0,0,0)" d="M 789.436 574.873 C 798.481 573.662 806.875 579.787 808.48 588.77 C 810.085 597.752 804.333 606.406 795.429 608.403 C 789.313 609.774 782.937 607.679 778.827 602.946 C 774.718 598.213 773.537 591.606 775.753 585.743 C 777.969 579.879 783.224 575.705 789.436 574.873 z"/>
<path transform="translate(0,0)" fill="rgb(254,254,254)" d="M 715.975 214.939 L 834.884 214.956 C 834.841 222.852 835.851 232.259 834.934 239.781 C 833.447 240.74 832.424 241.336 830.856 242.162 C 830.748 249.174 836.494 255.132 837.037 262.973 C 837.786 273.788 831.768 282.766 825.139 290.585 C 789.871 322.971 731.392 294.858 751.123 242.516 L 715.966 242.367 L 715.975 214.939 z"/>
<path transform="translate(0,0)" fill="rgb(0,0,0)" d="M 786.223 242.782 C 795.112 239.662 804.847 244.343 807.96 253.235 C 811.073 262.126 806.384 271.857 797.49 274.963 C 788.606 278.065 778.889 273.382 775.78 264.501 C 772.67 255.62 777.345 245.899 786.223 242.782 z"/>
<path transform="translate(0,0)" fill="rgb(254,254,254)" d="M 783.245 749.183 C 810.738 746.588 836.252 758.788 837.051 790.308 C 837.182 795.454 832.384 802.167 830.75 807.682 C 832.854 808.23 833.493 808.475 835.452 809.419 C 836.409 812.712 835.793 831.578 835.747 836.472 L 773.5 836.606 L 715.922 836.475 L 715.916 808.914 C 727.82 808.972 739.724 808.918 751.627 808.753 C 738.551 780.386 753.195 755.221 783.245 749.183 z"/>
<path transform="translate(0,0)" fill="rgb(0,0,0)" d="M 789.771 775.835 C 799.021 774.671 807.489 781.16 808.77 790.394 C 810.052 799.629 803.671 808.178 794.453 809.577 C 788.385 810.497 782.292 808.083 778.502 803.256 C 774.711 798.429 773.81 791.937 776.143 786.261 C 778.476 780.584 783.682 776.602 789.771 775.835 z"/>
<path transform="translate(0,0)" fill="rgb(254,254,254)" d="M 716.023 643.66 C 754.558 642.81 796.587 643.479 835.232 643.599 L 835.265 671.039 L 716.041 671.02 L 716.023 643.66 z"/>
<path transform="translate(0,0)" fill="rgb(254,254,254)" d="M 716.149 679.182 L 835.299 679.208 L 835.33 706.232 L 716.164 706.128 L 716.149 679.182 z"/>
<path transform="translate(0,0)" fill="rgb(254,254,254)" d="M 746.417 307.867 L 777.738 307.837 C 776.9 319.016 778.149 321.973 786.948 328.913 C 798.515 330.193 822.709 329.47 835.012 329.399 C 835.063 335.926 836.43 352.457 833.43 356.683 L 830.25 356.928 L 747.231 356.944 C 747.356 350.096 746.438 341.798 747.091 335.263 C 747.87 327.484 753.239 330.068 755.694 328.405 C 748.155 320.594 748.679 318.56 746.417 307.867 z"/>
<path transform="translate(0,0)" fill="rgb(254,254,254)" d="M 748.156 715.001 L 835.058 715.061 L 835.131 742.137 L 748.113 742.058 L 748.156 715.001 z"/>
<path transform="translate(0,0)" fill="rgb(5,14,33)" d="M 1305.6 89.2118 L 1306.3 89.2605 L 1306.66 90.3336 C 1301.43 96.2164 1296.34 97.668 1290.53 102.54 C 1285.76 106.571 1292.56 107.97 1292.8 114.067 C 1293.6 134.499 1275.04 127.525 1267.96 135.027 C 1263.99 131.912 1262.09 131.306 1257.36 129.389 C 1249.54 132.75 1244.45 135.616 1237.02 139.876 L 1236.4 138.489 C 1239.06 133.13 1250.86 133.989 1246.89 124.167 C 1246.48 123.152 1244.77 114.992 1244.92 114.631 C 1249.13 104.548 1250.98 107.871 1244.37 98.5369 C 1242.76 98.7944 1255.12 99.582 1253.15 98.7522 C 1256.51 100.171 1261.02 96.6676 1264.73 97.081 C 1273.07 98.0112 1280.81 98.5083 1289.21 98.5042 L 1305.6 89.2118 z"/>
<path transform="translate(0,0)" fill="rgb(5,14,33)" d="M 1534.62 301.619 L 1537.85 303.288 C 1539.9 313.279 1556.85 315.448 1554.39 328.93 C 1554.16 330.145 1554.34 335.52 1554.31 337.19 C 1553.15 338.144 1552.17 338.101 1550.64 338.332 L 1549.96 338.431 C 1547.07 345.493 1543.11 341.172 1539.33 354.283 L 1538.43 353.201 C 1534.92 348.571 1527.59 344.236 1522.5 341.601 C 1520.81 341.958 1519.6 342.478 1518.13 341.726 C 1518.43 341.384 1518.72 341.038 1519.01 340.69 C 1525.17 333.321 1517.04 326.952 1521.46 317.666 C 1525.43 309.344 1529.92 314.916 1534.5 309.772 C 1535.96 305.874 1535.33 306.287 1534.62 301.619 z"/>
<path transform="translate(0,0)" fill="rgb(254,254,254)" d="M 724.347 710.889 C 731.238 711.129 738.549 715.491 741.337 721.92 C 743.163 726.134 743.175 730.915 741.371 735.138 C 738.827 741.061 734.777 743.078 729.154 745.346 C 706.967 745.073 703.019 720.755 724.347 710.889 z"/>
<path transform="translate(0,0)" fill="rgb(254,254,254)" d="M 1918.64 37.1268 C 1921.13 39.402 1923.1 41.1352 1925.28 43.7321 C 1924.64 46.8495 1925.22 53.0383 1924.74 53.9348 C 1922.58 54.2714 1918.17 53.7124 1915.79 53.4971 L 1915.39 52.7344 C 1913.04 53.5031 1912.69 53.6263 1910.23 53.4717 C 1908.1 50.1849 1910.03 46.958 1908.32 43.3124 C 1909.56 41.998 1916.38 38.4927 1918.64 37.1268 z"/>
<path transform="translate(0,0)" fill="rgb(254,254,254)" d="M 5.62178 106.381 C 10.721 106.683 12.9774 106.485 15.4904 111.287 C 15.0043 115.673 15.2819 114.274 12.4468 118.072 C 7.95522 117.919 6.48996 117.506 3.84855 114.009 C 3.48255 109.615 3.65198 110.799 5.62178 106.381 z"/>
<path transform="translate(0,0)" fill="rgb(254,254,254)" d="M 1830.33 961.245 C 1833.94 962.052 1834.14 962.589 1835.77 965.481 C 1835.88 969.112 1834.81 970.508 1833.06 973.696 C 1829.26 972.81 1828.38 972.338 1826.73 969.036 C 1826.87 965.36 1828.11 964.193 1830.33 961.245 z"/>
<path transform="translate(0,0)" fill="rgb(254,254,254)" d="M 1816.85 936.352 C 1819.35 936.078 1821.62 937.789 1822.05 940.26 C 1822.49 942.731 1820.92 945.112 1818.48 945.699 C 1816.76 946.113 1814.95 945.536 1813.79 944.202 C 1812.63 942.869 1812.3 940.998 1812.94 939.349 C 1813.59 937.7 1815.09 936.545 1816.85 936.352 z"/>
<path transform="translate(0,0)" fill="rgb(254,254,254)" d="M 1965.15 839.249 C 1970.66 839.323 1974.38 842.258 1974.29 847.887 C 1970.25 848.737 1969.34 849.284 1965.95 848.033 C 1964.16 845.388 1964.88 842.633 1965.15 839.249 z"/>
<path transform="translate(0,0)" fill="rgb(233,188,140)" d="M 1414.26 246.686 C 1414.79 246.709 1416.98 247.327 1417.64 247.497 L 1418.24 249.066 C 1416.73 251.587 1413.92 252.839 1411.33 254.316 L 1409.04 254.936 L 1408.49 253.649 C 1409.82 250.173 1411.45 249.118 1414.26 246.686 z"/>
</svg>